<?xml version="1.0" encoding="utf-8"?>
<!-- Generator: Adobe Illustrator 23.0.1, SVG Export Plug-In . SVG Version: 6.00 Build 0)  -->
<svg version="1.1" id="Layer_1" xmlns="http://www.w3.org/2000/svg" xmlns:xlink="http://www.w3.org/1999/xlink" x="0px" y="0px"
	 viewBox="0 0 100 100" style="enable-background:new 0 0 100 100;" xml:space="preserve">
<style type="text/css">
	.st0{fill:#9D9D9D;}
</style>
<g>
	<path class="st0" d="M46.8,59c-10,0-18.2-8.1-18.2-18.2c0-10,8.1-18.2,18.2-18.2c10,0,18.2,8.1,18.2,18.2
		C64.9,50.8,56.8,59,46.8,59z M46.8,24.6c-8.9,0-16.2,7.3-16.2,16.2c0,8.9,7.3,16.2,16.2,16.2C55.7,57,63,49.8,63,40.8
		C63,31.9,55.7,24.6,46.8,24.6z"/>
	<path class="st0" d="M46,50.5c-0.3,0-0.5-0.1-0.7-0.3l-9.4-10.3c-0.4-0.4-0.3-1,0.1-1.4c0.4-0.4,1-0.3,1.4,0.1l8.5,9.3l8.4-16.2
		c0.2-0.5,0.8-0.7,1.3-0.4c0.5,0.2,0.7,0.8,0.4,1.3l-9,17.4c-0.1,0.3-0.4,0.5-0.7,0.5C46.1,50.5,46,50.5,46,50.5z"/>
	<path class="st0" d="M58.1,81.6H32.1c-0.5,0-1-0.4-1-1V65.3l-6.3-12.4c-2.1-4.1-3.2-8.7-3.2-13.3C21.6,26,32.7,15,46.2,15
		c5.4,0,10.6,1.7,14.9,5c0.2,0.1,3.9,3,5.9,6.4c2.5,4.3,3.8,8.7,3.8,13.1l0.1,0.8l4.3,12.2c0.2,0.6,0.1,1.3-0.2,1.8
		c-0.4,0.5-1,0.8-1.6,0.8h-2.1l0,0.8l0,10.3c0,3.3-2.7,6-6,6H59v8.4C59,81.2,58.6,81.6,58.1,81.6z M33.1,79.7h24v-8.4
		c0-0.5,0.4-1,1-1h7.2c2.3,0,4.1-1.8,4.1-4.1V56l-0.1-1.8c0-0.3,0.1-0.5,0.3-0.7c0.2-0.2,0.4-0.3,0.7-0.3h3.1L69,40.9
		c0-0.1,0-0.2-0.1-0.3l-0.1-1c0-4.1-1.2-8.2-3.5-12.2c-1.8-3.1-5.4-5.9-5.4-5.9c-4-3-8.7-4.6-13.7-4.6c-12.5,0-22.6,10.2-22.6,22.6
		c0,4.3,1,8.6,3,12.5L33,64.7c0.1,0.1,0.1,0.3,0.1,0.4V79.7z"/>
</g>
</svg>
