<?xml version="1.0" encoding="utf-8"?>
<!-- Generator: Adobe Illustrator 23.0.1, SVG Export Plug-In . SVG Version: 6.00 Build 0)  -->
<svg version="1.1" id="Layer_1" xmlns="http://www.w3.org/2000/svg" xmlns:xlink="http://www.w3.org/1999/xlink" x="0px" y="0px"
	 viewBox="0 0 100 100" style="enable-background:new 0 0 100 100;" xml:space="preserve">
<style type="text/css">
	.st0{fill:#9D9D9D;}
</style>
<g>
	<g>
		<path class="st0" d="M21.2,32.8c-3.3,0-6-2.7-6-6s2.7-6,6-6s6,2.7,6,6S24.5,32.8,21.2,32.8z M21.2,23.1c-2,0-3.7,1.6-3.7,3.7
			s1.6,3.7,3.7,3.7c2,0,3.7-1.6,3.7-3.7S23.2,23.1,21.2,23.1z"/>
		<path class="st0" d="M14.7,55.7c-0.6,0-1.2-0.5-1.2-1.2V42.1c0-0.6,0.5-1.2,1.2-1.2c0.6,0,1.2,0.5,1.2,1.2v12.4
			C15.9,55.2,15.4,55.7,14.7,55.7z"/>
		<path class="st0" d="M27.7,83h-4.9c-0.6,0-1.2-0.5-1.2-1.2v-20c0-0.2-0.1-0.3-0.2-0.3c-0.1-0.1-0.2-0.1-0.4-0.1
			c-0.2,0-0.4,0.3-0.4,0.5v19.9c0,0.6-0.5,1.2-1.2,1.2h-4.9c-0.6,0-1.2-0.5-1.2-1.2V57.8C13,58,12.4,58,11.8,57.9
			C10.2,57.6,9,56.1,9,54.4V42c0-4,3-7.3,7-7.8c1.2-0.1,3-0.2,5.3-0.2c0.6,0,1.2,0.5,1.2,1.2c0,0.6-0.5,1.2-1.2,1.2
			c-2.2,0-3.9,0-5,0.2c-2.8,0.3-4.9,2.7-4.9,5.5v12.4c0,0.6,0.4,1.1,0.9,1.2c0.5,0.1,0.8-0.1,0.9-0.2c0.3-0.2,0.4-0.5,0.4-0.8
			c0-0.6,0.5-1.2,1.2-1.2c0.6,0,1.2,0.5,1.2,1.2v26.1h2.5V61.9c0-1.4,1-2.6,2.3-2.8c0.8-0.1,1.6,0.1,2.3,0.6c0.6,0.5,1,1.3,1,2.1
			v18.9h2.5V54.5c0-0.6,0.5-1.2,1.2-1.2c0.6,0,1.2,0.5,1.2,1.2v27.3C28.9,82.5,28.4,83,27.7,83z"/>
		<path class="st0" d="M27.7,57.1h-13c-0.6,0-1.2-0.5-1.2-1.2c0-0.6,0.5-1.2,1.2-1.2h13c0.6,0,1.2,0.5,1.2,1.2
			C28.9,56.6,28.4,57.1,27.7,57.1z"/>
		<path class="st0" d="M27.7,55.7c-0.6,0-1.2-0.5-1.2-1.2V40.1c0-0.6,0.5-1.2,1.2-1.2h13.2c0.7,0,1.3-0.6,1.3-1.3
			c0-0.7-0.6-1.3-1.3-1.3H21.2c-0.6,0-1.2-0.5-1.2-1.2c0-0.6,0.5-1.2,1.2-1.2h19.7c2,0,3.6,1.6,3.6,3.6s-1.6,3.6-3.6,3.6H28.9v13.2
			C28.9,55.2,28.4,55.7,27.7,55.7z"/>
		<path class="st0" d="M87.8,57.5H39.2c-0.6,0-1.2-0.5-1.2-1.2V40.1c0-0.6,0.5-1.2,1.2-1.2h1.8c0.7,0,1.3-0.6,1.3-1.3
			c0-0.7-0.6-1.3-1.3-1.3h-1.8c-0.6,0-1.2-0.5-1.2-1.2V18.2c0-0.6,0.5-1.2,1.2-1.2h48.6c0.6,0,1.2,0.5,1.2,1.2v38.1
			C88.9,57,88.4,57.5,87.8,57.5z M40.3,55.2h46.3V19.4H40.3V34h0.6c2,0,3.6,1.6,3.6,3.6s-1.6,3.6-3.6,3.6h-0.6V55.2z"/>
		<path class="st0" d="M88.8,61.6H38.1c-1.8,0-3.2-1.4-3.2-3.2c0-1.8,1.4-3.2,3.2-3.2h50.6c1.8,0,3.2,1.4,3.2,3.2
			C92,60.2,90.6,61.6,88.8,61.6z M38.1,57.5c-0.5,0-0.9,0.4-0.9,0.9c0,0.5,0.4,0.9,0.9,0.9h50.6c0.5,0,0.9-0.4,0.9-0.9
			c0-0.5-0.4-0.9-0.9-0.9H38.1z"/>
	</g>
	<g>
		<path class="st0" d="M73.8,41.1c-2.1,0-3.8-1.7-3.8-3.8c0-2.1,1.7-3.8,3.8-3.8s3.8,1.7,3.8,3.8C77.6,39.4,75.9,41.1,73.8,41.1z
			 M73.8,34.4c-1.6,0-2.9,1.3-2.9,2.9c0,1.6,1.3,2.9,2.9,2.9c1.6,0,2.9-1.3,2.9-2.9C76.7,35.7,75.4,34.4,73.8,34.4z"/>
		<path class="st0" d="M73.8,42.7c-3,0-5.4-2.4-5.4-5.4c0-3,2.4-5.4,5.4-5.4c3,0,5.4,2.4,5.4,5.4C79.2,40.3,76.8,42.7,73.8,42.7z
			 M73.8,32.8c-2.5,0-4.5,2-4.5,4.5c0,2.5,2,4.5,4.5,4.5c2.5,0,4.5-2,4.5-4.5C78.3,34.8,76.3,32.8,73.8,32.8z"/>
		<path class="st0" d="M73.8,49.3c-0.8,0-1.5-0.7-1.5-1.5v-5.7c0-0.1,0.1-0.3,0.2-0.3c0.1-0.1,0.2-0.1,0.4-0.1
			c0.6,0.1,1.2,0.1,1.9,0c0.1,0,0.3,0,0.4,0.1c0.1,0.1,0.2,0.2,0.2,0.3v5.7C75.3,48.7,74.6,49.3,73.8,49.3z M73.2,42.7v5.2
			c0,0.3,0.3,0.6,0.6,0.6c0.3,0,0.6-0.3,0.6-0.6v-5.2C74,42.7,73.6,42.7,73.2,42.7z"/>
		<path class="st0" d="M76.7,33.7c-0.2,0-0.5-0.2-0.5-0.5V27c0-0.3-0.2-0.5-0.5-0.5h-0.6v6c0,0.2-0.2,0.5-0.5,0.5
			c-0.2,0-0.5-0.2-0.5-0.5V26c0-0.2,0.2-0.5,0.5-0.5h1.1c0.8,0,1.4,0.6,1.4,1.4v6.3C77.2,33.5,77,33.7,76.7,33.7z"/>
		<path class="st0" d="M71.6,42.2H50c-0.8,0-1.4-0.6-1.4-1.4V27c0-0.8,0.6-1.4,1.4-1.4h1.1c0.2,0,0.5,0.2,0.5,0.5v13.6
			c0,0.2-0.2,0.5-0.5,0.5c-0.2,0-0.5-0.2-0.5-0.5V26.4H50c-0.3,0-0.5,0.2-0.5,0.5v13.8c0,0.3,0.2,0.5,0.5,0.5h21.6
			c0.2,0,0.5,0.2,0.5,0.5C72.1,42,71.9,42.2,71.6,42.2z"/>
		<path class="st0" d="M62.9,40c-0.2,0-0.5-0.2-0.5-0.5V25.1c0-0.2,0.2-0.5,0.5-0.5c0.2,0,0.5,0.2,0.5,0.5v14.4
			C63.3,39.8,63.1,40,62.9,40z"/>
		<path class="st0" d="M64,42.2h-2.2c-0.6,0-1.1-0.5-1.1-1.1c0-0.6-0.5-1.1-1.1-1.1h-8.5c-0.2,0-0.5-0.2-0.5-0.5v-15
			c0-0.2,0.2-0.5,0.5-0.5h6.5c1.4,0,2.9,0.1,4.3,0.4l1,0.2l1-0.2c1.4-0.3,2.8-0.4,4.3-0.4h6.5c0.2,0,0.5,0.2,0.5,0.5v7.9
			c0,0.2-0.2,0.5-0.5,0.5c-0.2,0-0.5-0.2-0.5-0.5V25h-6.1c-1.4,0-2.7,0.1-4.1,0.4L63,25.6c-0.1,0-0.1,0-0.2,0l-1.1-0.2
			C60.3,25.1,59,25,57.6,25h-6.1v14.1h8c1.1,0,2,0.9,2,2c0,0.1,0.1,0.2,0.2,0.2H64c0.1,0,0.2-0.1,0.2-0.2c0-1.1,0.9-2,2-2h3.2
			c0.2,0,0.5,0.2,0.5,0.5c0,0.2-0.2,0.5-0.5,0.5h-3.2c-0.6,0-1.1,0.5-1.1,1.1C65.1,41.7,64.6,42.2,64,42.2z"/>
		<path class="st0" d="M59.7,27.7h-6.1c-0.2,0-0.5-0.2-0.5-0.5c0-0.2,0.2-0.5,0.5-0.5h6.1c0.2,0,0.5,0.2,0.5,0.5
			C60.2,27.5,59.9,27.7,59.7,27.7z"/>
		<path class="st0" d="M59.7,30.2h-6.1c-0.2,0-0.5-0.2-0.5-0.5c0-0.2,0.2-0.5,0.5-0.5h6.1c0.2,0,0.5,0.2,0.5,0.5
			C60.2,30,59.9,30.2,59.7,30.2z"/>
		<path class="st0" d="M59.7,32.8h-6.1c-0.2,0-0.5-0.2-0.5-0.5c0-0.2,0.2-0.5,0.5-0.5h6.1c0.2,0,0.5,0.2,0.5,0.5
			C60.2,32.5,59.9,32.8,59.7,32.8z"/>
		<path class="st0" d="M59.7,35.3h-6.1c-0.2,0-0.5-0.2-0.5-0.5c0-0.2,0.2-0.5,0.5-0.5h6.1c0.2,0,0.5,0.2,0.5,0.5
			C60.2,35.1,59.9,35.3,59.7,35.3z"/>
		<path class="st0" d="M72.1,27.7h-6.1c-0.2,0-0.5-0.2-0.5-0.5c0-0.2,0.2-0.5,0.5-0.5h6.1c0.2,0,0.5,0.2,0.5,0.5
			C72.6,27.5,72.4,27.7,72.1,27.7z"/>
		<path class="st0" d="M72.1,30.2h-6.1c-0.2,0-0.5-0.2-0.5-0.5c0-0.2,0.2-0.5,0.5-0.5h6.1c0.2,0,0.5,0.2,0.5,0.5
			C72.6,30,72.4,30.2,72.1,30.2z"/>
		<path class="st0" d="M73.6,32.8h-7.5c-0.2,0-0.5-0.2-0.5-0.5c0-0.2,0.2-0.5,0.5-0.5h7.5c0.2,0,0.5,0.2,0.5,0.5
			C74,32.5,73.8,32.8,73.6,32.8z"/>
		<path class="st0" d="M69.5,35.3h-3.5c-0.2,0-0.5-0.2-0.5-0.5c0-0.2,0.2-0.5,0.5-0.5h3.5c0.2,0,0.5,0.2,0.5,0.5
			C70,35.1,69.8,35.3,69.5,35.3z"/>
	</g>
</g>
</svg>
