<?xml version="1.0" encoding="utf-8"?>
<!-- Generator: Adobe Illustrator 23.0.1, SVG Export Plug-In . SVG Version: 6.00 Build 0)  -->
<svg version="1.1" id="Layer_1" xmlns="http://www.w3.org/2000/svg" xmlns:xlink="http://www.w3.org/1999/xlink" x="0px" y="0px"
	 viewBox="0 0 100 100" style="enable-background:new 0 0 100 100;" xml:space="preserve">
<style type="text/css">
	.st0{fill:#9D9D9D;}
</style>
<g>
	<g>
		<g>
			<path class="st0" d="M51,73.9c-0.1,0-0.2,0-0.2-0.1l-1.4-0.9c-1.1-0.7-2.5-1.1-3.8-1.1H36c-0.2,0-0.4-0.2-0.4-0.4V56.8
				c0-0.2,0.2-0.4,0.4-0.4h9.5c1.5,0,3,0.4,4.3,1.3l1.1,0.7l1.1-0.7c1.3-0.8,2.8-1.3,4.3-1.3h9.5c0.2,0,0.4,0.2,0.4,0.4v14.6
				c0,0.2-0.2,0.4-0.4,0.4h-9.5c-1.4,0-2.7,0.4-3.8,1.1l-1.4,0.9C51.1,73.9,51,73.9,51,73.9z M36.5,70.9h9.1c1.5,0,3,0.4,4.3,1.3
				l1.1,0.7l1.1-0.7c1.3-0.8,2.8-1.3,4.3-1.3h9.1V57.2h-9.1c-1.4,0-2.7,0.4-3.8,1.1l-1.4,0.9c-0.1,0.1-0.3,0.1-0.5,0l-1.4-0.9
				c-1.1-0.7-2.5-1.1-3.8-1.1h-9.1V70.9z"/>
			<path class="st0" d="M51,73.9c-0.2,0-0.4-0.2-0.4-0.4v-7.7c0-0.2,0.2-0.4,0.4-0.4c0.2,0,0.4,0.2,0.4,0.4v7.7
				C51.4,73.7,51.2,73.9,51,73.9z"/>
			<path class="st0" d="M51,63.3c-0.2,0-0.4-0.2-0.4-0.4v-4c0-0.2,0.2-0.4,0.4-0.4c0.2,0,0.4,0.2,0.4,0.4v4
				C51.4,63.1,51.2,63.3,51,63.3z"/>
			<path class="st0" d="M45.4,60.2h-7c-0.2,0-0.4-0.2-0.4-0.4c0-0.2,0.2-0.4,0.4-0.4h7c0.2,0,0.4,0.2,0.4,0.4
				C45.8,60,45.6,60.2,45.4,60.2z"/>
			<path class="st0" d="M45.4,62.9h-7c-0.2,0-0.4-0.2-0.4-0.4c0-0.2,0.2-0.4,0.4-0.4h7c0.2,0,0.4,0.2,0.4,0.4
				C45.8,62.7,45.6,62.9,45.4,62.9z"/>
			<path class="st0" d="M45.4,65.6h-7c-0.2,0-0.4-0.2-0.4-0.4c0-0.2,0.2-0.4,0.4-0.4h7c0.2,0,0.4,0.2,0.4,0.4
				C45.8,65.4,45.6,65.6,45.4,65.6z"/>
			<path class="st0" d="M45.4,68.3h-7c-0.2,0-0.4-0.2-0.4-0.4s0.2-0.4,0.4-0.4h7c0.2,0,0.4,0.2,0.4,0.4S45.6,68.3,45.4,68.3z"/>
			<path class="st0" d="M63.5,60.2h-7c-0.2,0-0.4-0.2-0.4-0.4c0-0.2,0.2-0.4,0.4-0.4h7c0.2,0,0.4,0.2,0.4,0.4
				C64,60,63.8,60.2,63.5,60.2z"/>
			<path class="st0" d="M63.5,62.9h-7c-0.2,0-0.4-0.2-0.4-0.4c0-0.2,0.2-0.4,0.4-0.4h7c0.2,0,0.4,0.2,0.4,0.4
				C64,62.7,63.8,62.9,63.5,62.9z"/>
			<path class="st0" d="M63.5,65.6h-7c-0.2,0-0.4-0.2-0.4-0.4c0-0.2,0.2-0.4,0.4-0.4h7c0.2,0,0.4,0.2,0.4,0.4
				C64,65.4,63.8,65.6,63.5,65.6z"/>
			<path class="st0" d="M63.5,68.3h-7c-0.2,0-0.4-0.2-0.4-0.4s0.2-0.4,0.4-0.4h7c0.2,0,0.4,0.2,0.4,0.4S63.8,68.3,63.5,68.3z"/>
		</g>
	</g>
	<g>
		<g>
			<path class="st0" d="M26.3,68.4c-0.6,0-1-0.4-1-0.8v-8.5c0-0.4,0.4-0.8,1-0.8c0.6,0,1,0.4,1,0.8v8.5C27.3,68,26.9,68.4,26.3,68.4
				z"/>
			<path class="st0" d="M75.1,43.1H26.5c-0.6,0-1.2,0.5-1.2,1.2v16.9c0,0.6,0.5,1.2,1.2,1.2h1c0-0.3,0-0.5,0-0.8
				c0-0.5,0.1-1,0.2-1.5h0V45.4h46.3v35.8H27.7V68.5c-0.1-0.4-0.2-0.9-0.2-1.3c0-0.7,0-1.5,0-2.2h-1c-0.6,0-1.2,0.5-1.2,1.2v16.2
				c0,0.6,0.5,1.2,1.2,1.2h48.6c0.6,0,1.2-0.5,1.2-1.2V44.2C76.3,43.6,75.7,43.1,75.1,43.1z"/>
			<path class="st0" d="M26.3,83.3l48.6,0.4c0.6,0,1.2-0.5,1.2-1.2l0.2-16.9c0-0.6-0.5-1.2-1.2-1.2l-1,0c0,0.3,0,0.5,0,0.8
				c0,0.5-0.1,1-0.2,1.5l0,0l-0.1,14.6L27.5,81l0.3-35.8l46.3,0.4L74,58.3c0.1,0.4,0.2,0.9,0.2,1.3c0,0.7,0,1.5,0,2.2l1,0
				c0.6,0,1.2-0.5,1.2-1.2l0.1-16.2c0-0.6-0.5-1.2-1.2-1.2l-48.6-0.4c-0.6,0-1.2,0.5-1.2,1.2l-0.3,38.1
				C25.1,82.8,25.7,83.3,26.3,83.3z"/>
		</g>
	</g>
	<g>
		<path class="st0" d="M51.4,18.3L18.6,52.4c-0.3,0.3-0.9,0.4-1.2,0c-0.3-0.3-0.4-0.9,0-1.2l32.8-34.1c0.3-0.3,0.9-0.4,1.2,0
			C51.7,17.4,51.7,18,51.4,18.3z"/>
		<path class="st0" d="M82.8,52.7L50.8,18c-0.3-0.3-0.3-0.9,0-1.2c0.3-0.3,0.9-0.3,1.2,0l32.1,34.7c0.3,0.3,0.3,0.9,0,1.2
			C83.7,53.1,83.1,53.1,82.8,52.7z"/>
	</g>
	<g>
		<g>
			<g>
				<path class="st0" d="M51.4,20.3l-31.7,33c-0.3,0.3-0.8,0.3-1.2,0c-0.3-0.3-0.4-0.9,0-1.2l31.7-33c0.3-0.3,0.8-0.3,1.2,0
					C51.7,19.4,51.7,20,51.4,20.3z"/>
				<path class="st0" d="M82.1,54l-31.4-34c-0.3-0.3-0.3-0.9,0.1-1.2c0.3-0.3,0.9-0.3,1.2,0l31.4,34c0.3,0.3,0.3,0.9-0.1,1.2
					C83,54.3,82.4,54.3,82.1,54z"/>
			</g>
			<g>
				<path class="st0" d="M51.4,18.3L18.6,52.4c-0.3,0.3-0.9,0.4-1.2,0c-0.3-0.3-0.4-0.9,0-1.2l32.8-34.1c0.3-0.3,0.9-0.4,1.2,0
					C51.7,17.4,51.7,18,51.4,18.3z"/>
				<path class="st0" d="M82.8,52.7L50.8,18c-0.3-0.3-0.3-0.9,0-1.2c0.3-0.3,0.9-0.3,1.2,0l32.1,34.7c0.3,0.3,0.3,0.9,0,1.2
					C83.7,53.1,83.1,53.1,82.8,52.7z"/>
			</g>
		</g>
		<circle class="st0" cx="18.8" cy="52" r="1.5"/>
		<circle class="st0" cx="82.8" cy="52.5" r="1.5"/>
	</g>
</g>
</svg>
