<?xml version="1.0" encoding="utf-8"?>
<!-- Generator: Adobe Illustrator 23.0.1, SVG Export Plug-In . SVG Version: 6.00 Build 0)  -->
<svg version="1.1" id="Layer_1" xmlns="http://www.w3.org/2000/svg" xmlns:xlink="http://www.w3.org/1999/xlink" x="0px" y="0px"
	 viewBox="0 0 100 100" style="enable-background:new 0 0 100 100;" xml:space="preserve">
<style type="text/css">
	.st0{fill:#606060;}
</style>
<g>
	<path class="st0" d="M50.4,84c-14.3,0-26-11.7-26-26c0-5.8,1.8-11.2,5.4-15.8c0.3-0.4,0.8-0.5,1.2-0.2c0.4,0.3,0.5,0.8,0.2,1.2
		c-3.3,4.3-5,9.4-5,14.7c0,13.4,10.9,24.3,24.3,24.3S74.7,71.4,74.7,58c0-11.9-8.9-22.2-20.7-24c-0.5-0.1-0.8-0.5-0.7-1
		c0.1-0.5,0.5-0.8,1-0.7C66.9,34.1,76.5,45.2,76.5,58C76.5,72.3,64.8,84,50.4,84z"/>
	<path class="st0" d="M50.4,84c-6.6,0-12.9-2.5-17.7-6.9c-0.2-0.2-0.3-0.4-0.3-0.6c0-0.2,0.1-0.5,0.3-0.6c4.8-4.5,11.1-6.9,17.7-6.9
		c6.6,0,12.9,2.5,17.7,6.9c0.2,0.2,0.3,0.4,0.3,0.6c0,0.2-0.1,0.5-0.3,0.6C63.3,81.5,57,84,50.4,84z M34.7,76.4
		c4.4,3.8,10,5.8,15.8,5.8c5.8,0,11.4-2.1,15.8-5.8c-4.4-3.8-10-5.8-15.8-5.8C44.6,70.6,39.1,72.6,34.7,76.4z"/>
	<path class="st0" d="M50.4,47.1c-1.9,0-3.8-0.2-5.7-0.6c-0.5-0.1-0.8-0.6-0.7-1.1c0.1-0.5,0.6-0.8,1.1-0.7c1.7,0.4,3.5,0.6,5.3,0.6
		c5.8,0,11.4-2.1,15.8-5.8c-3.5-3-7.7-4.9-12.2-5.6c-0.5-0.1-0.8-0.5-0.7-1c0.1-0.5,0.5-0.8,1-0.7c5.2,0.8,10,3.1,13.8,6.7
		c0.2,0.2,0.3,0.4,0.3,0.6c0,0.2-0.1,0.5-0.3,0.6C63.3,44.7,57,47.1,50.4,47.1z"/>
	<path class="st0" d="M50.4,84C43.5,84,38,72.6,38,58c0-2.1,0.1-4.2,0.3-6.2c0.1-0.5,0.5-0.8,1-0.8c0.5,0.1,0.8,0.5,0.8,1
		c-0.2,1.9-0.3,4-0.3,6c0,13.1,4.9,24.3,10.7,24.3c5.8,0,10.7-11.1,10.7-24.3c0-11.4-3.1-21.3-7.5-24.1c-0.4-0.3-0.5-0.8-0.3-1.2
		c0.3-0.4,0.8-0.5,1.2-0.3c5,3.1,8.3,13.4,8.3,25.6C62.9,72.6,57.4,84,50.4,84z"/>
	<path class="st0" d="M75.6,58.9H25.3c-0.5,0-0.9-0.4-0.9-0.9c0-0.5,0.4-0.9,0.9-0.9h50.3c0.5,0,0.9,0.4,0.9,0.9
		C76.5,58.5,76.1,58.9,75.6,58.9z"/>
	<path class="st0" d="M38.9,34c-2.7,0-4.9-2.2-4.9-4.9c0-2.7,2.2-4.9,4.9-4.9c2.7,0,4.9,2.2,4.9,4.9C43.8,31.8,41.6,34,38.9,34z
		 M38.9,25.9c-1.7,0-3.2,1.4-3.2,3.2c0,1.7,1.4,3.2,3.2,3.2c1.7,0,3.2-1.4,3.2-3.2C42,27.3,40.6,25.9,38.9,25.9z"/>
	<path class="st0" d="M38.9,49.3c-0.3,0-0.5-0.1-0.7-0.4l-9.5-12.8c-2.6-3.9-2.9-8.7-0.8-12.9c2-4,5.8-6.6,10.2-6.8
		c0.5,0,1.1,0,1.6,0c4.4,0.3,8.2,2.8,10.2,6.8c2.1,4.2,1.8,9-0.8,12.8l-9.6,12.8C39.4,49.1,39.1,49.3,38.9,49.3z M38.9,18.2
		c-0.2,0-0.5,0-0.7,0c-3.8,0.2-7.1,2.4-8.8,5.9c-1.8,3.6-1.5,7.7,0.7,11.1l8.8,11.8l8.8-11.8c2.2-3.3,2.5-7.4,0.7-11
		c-1.7-3.4-5-5.6-8.8-5.9C39.3,18.2,39.1,18.2,38.9,18.2z"/>
	<path class="st0" d="M40.4,38.2h-3.1c-0.5,0-0.9-0.4-0.9-0.9v-0.9c-0.4-0.1-0.7-0.3-1.1-0.4l-0.6,0.6c-0.3,0.3-0.9,0.3-1.2,0
		l-2.2-2.2c-0.3-0.3-0.3-0.9,0-1.2l0.6-0.6c-0.2-0.3-0.3-0.7-0.4-1.1h-0.9c-0.5,0-0.9-0.4-0.9-0.9v-3.1c0-0.5,0.4-0.9,0.9-0.9h0.9
		c0.1-0.4,0.3-0.7,0.4-1.1l-0.6-0.6c-0.3-0.3-0.3-0.9,0-1.2l2.2-2.2c0.3-0.3,0.9-0.3,1.2,0l0.6,0.6c0.3-0.2,0.7-0.3,1.1-0.4v-0.9
		c0-0.5,0.4-0.9,0.9-0.9h3.1c0.5,0,0.9,0.4,0.9,0.9v0.9c0.4,0.1,0.7,0.3,1.1,0.4l0.6-0.6c0.3-0.3,0.9-0.3,1.2,0l2.2,2.2
		c0.3,0.3,0.3,0.9,0,1.2l-0.6,0.6c0.2,0.3,0.3,0.7,0.4,1.1h0.9c0.5,0,0.9,0.4,0.9,0.9v3.1c0,0.5-0.4,0.9-0.9,0.9h-0.9
		c-0.1,0.4-0.3,0.7-0.4,1.1l0.6,0.6c0.3,0.3,0.3,0.9,0,1.2l-2.2,2.2c-0.3,0.3-0.9,0.3-1.2,0L42.3,36c-0.3,0.2-0.7,0.3-1.1,0.4v0.9
		C41.3,37.8,40.9,38.2,40.4,38.2z M38.2,36.4h1.3v-0.7c0-0.4,0.3-0.8,0.7-0.9c0.6-0.1,1.3-0.4,1.8-0.8c0.3-0.2,0.8-0.2,1.1,0.1
		l0.5,0.5l0.9-0.9l-0.5-0.5c-0.3-0.3-0.3-0.7-0.1-1.1c0.4-0.6,0.6-1.2,0.8-1.8c0.1-0.4,0.4-0.7,0.9-0.7h0.7v-1.3h-0.7
		c-0.4,0-0.8-0.3-0.9-0.7c-0.1-0.6-0.4-1.3-0.8-1.8c-0.2-0.3-0.2-0.8,0.1-1.1l0.5-0.5l-0.9-0.9l-0.5,0.5c-0.3,0.3-0.7,0.3-1.1,0.1
		c-0.6-0.4-1.2-0.6-1.8-0.8c-0.4-0.1-0.7-0.4-0.7-0.9v-0.7h-1.3v0.7c0,0.4-0.3,0.8-0.7,0.9c-0.6,0.1-1.3,0.4-1.8,0.8
		c-0.3,0.2-0.8,0.2-1.1-0.1l-0.5-0.5l-0.9,0.9l0.5,0.5c0.3,0.3,0.3,0.7,0.1,1.1c-0.4,0.6-0.6,1.2-0.8,1.8c-0.1,0.4-0.4,0.7-0.9,0.7
		h-0.7v1.3h0.7c0.4,0,0.8,0.3,0.9,0.7c0.1,0.6,0.4,1.3,0.8,1.8c0.2,0.3,0.2,0.8-0.1,1.1l-0.5,0.5l0.9,0.9l0.5-0.5
		c0.3-0.3,0.7-0.3,1.1-0.1c0.6,0.4,1.2,0.6,1.8,0.8c0.4,0.1,0.7,0.4,0.7,0.9V36.4z"/>
</g>
</svg>
