<?xml version="1.0" encoding="utf-8"?>
<!-- Generator: Adobe Illustrator 23.0.1, SVG Export Plug-In . SVG Version: 6.00 Build 0)  -->
<svg version="1.1" id="Layer_1" xmlns="http://www.w3.org/2000/svg" xmlns:xlink="http://www.w3.org/1999/xlink" x="0px" y="0px"
	 viewBox="0 0 100 100" style="enable-background:new 0 0 100 100;" xml:space="preserve">
<style type="text/css">
	.st0{fill:#9D9D9D;}
</style>
<g>
	<path class="st0" d="M56.6,71.7H43c-0.8,0-1.5-0.7-1.5-1.5v-3.9c0-6.1-2-12.1-5.8-17.5c-2.2-3.1-3.2-6.7-3.1-10.4
		c0.3-8.8,7.3-16.1,16.1-16.6c4.8-0.3,9.4,1.3,12.9,4.6C65,29.6,67,34.2,67,38.9c0,3.5-1.1,6.9-3.1,9.8c-3.8,5.4-5.8,11.5-5.8,17.5
		v3.9C58.1,71,57.4,71.7,56.6,71.7z M43.1,70.1h13.4v-3.8c0-6.4,2.1-12.8,6.1-18.4c1.8-2.6,2.8-5.7,2.8-8.9c0-4.3-1.7-8.4-4.9-11.4
		c-3.2-3-7.3-4.5-11.7-4.2c-7.9,0.5-14.3,7.1-14.6,15.1c-0.1,3.4,0.9,6.7,2.8,9.4c4,5.6,6.1,12,6.1,18.4V70.1z"/>
	<path class="st0" d="M36.7,40.5c-0.5,0-0.8-0.4-0.8-0.8c0.2-7.5,6.3-13.7,13.7-14.2c0.4,0,0.8,0.3,0.9,0.8c0,0.4-0.3,0.8-0.8,0.9
		c-6.6,0.4-12,5.9-12.2,12.6C37.5,40.1,37.2,40.5,36.7,40.5z"/>
	<path class="st0" d="M57.2,79H42.4c-1.7,0-3.1-1.4-3.1-3.1c0-1.7,1.4-3.1,3.1-3.1h14.8c1.7,0,3.1,1.4,3.1,3.1
		C60.2,77.6,58.9,79,57.2,79z M42.4,74.5c-0.8,0-1.4,0.6-1.4,1.4c0,0.8,0.6,1.4,1.4,1.4h14.8c0.8,0,1.4-0.6,1.4-1.4
		c0-0.8-0.6-1.4-1.4-1.4H42.4z"/>
	<path class="st0" d="M49.8,20c-0.4,0-0.8-0.4-0.8-0.8v-5.5c0-0.4,0.4-0.8,0.8-0.8c0.4,0,0.8,0.4,0.8,0.8v5.5
		C50.6,19.6,50.2,20,49.8,20z"/>
	<path class="st0" d="M59.6,22.6c-0.1,0-0.3,0-0.4-0.1c-0.4-0.2-0.5-0.7-0.3-1.1l2.8-4.8c0.2-0.4,0.7-0.5,1.1-0.3
		c0.4,0.2,0.5,0.7,0.3,1.1l-2.8,4.8C60.1,22.5,59.8,22.6,59.6,22.6z"/>
	<path class="st0" d="M66.7,29.8c-0.3,0-0.6-0.1-0.7-0.4c-0.2-0.4-0.1-0.9,0.3-1.1l4.8-2.8c0.4-0.2,0.9-0.1,1.1,0.3
		c0.2,0.4,0.1,0.9-0.3,1.1l-4.8,2.8C67,29.8,66.9,29.8,66.7,29.8z"/>
	<path class="st0" d="M74.9,39.6h-5.5c-0.4,0-0.8-0.4-0.8-0.8c0-0.4,0.4-0.8,0.8-0.8h5.5c0.4,0,0.8,0.4,0.8,0.8
		C75.7,39.2,75.3,39.6,74.9,39.6z"/>
	<path class="st0" d="M71.5,52.1c-0.1,0-0.3,0-0.4-0.1l-4.8-2.8c-0.4-0.2-0.5-0.7-0.3-1.1c0.2-0.4,0.7-0.5,1.1-0.3l4.8,2.8
		c0.4,0.2,0.5,0.7,0.3,1.1C72.1,52,71.8,52.1,71.5,52.1z"/>
	<path class="st0" d="M28,52.1c-0.3,0-0.6-0.1-0.7-0.4c-0.2-0.4-0.1-0.9,0.3-1.1l4.8-2.8c0.4-0.2,0.9-0.1,1.1,0.3
		c0.2,0.4,0.1,0.9-0.3,1.1L28.4,52C28.3,52.1,28.2,52.1,28,52.1z"/>
	<path class="st0" d="M30.2,39.6h-5.5c-0.4,0-0.8-0.4-0.8-0.8c0-0.4,0.4-0.8,0.8-0.8h5.5c0.4,0,0.8,0.4,0.8,0.8
		C31,39.2,30.6,39.6,30.2,39.6z"/>
	<path class="st0" d="M32.8,29.8c-0.1,0-0.3,0-0.4-0.1l-4.8-2.8c-0.4-0.2-0.5-0.7-0.3-1.1c0.2-0.4,0.7-0.5,1.1-0.3l4.8,2.8
		c0.4,0.2,0.5,0.7,0.3,1.1C33.4,29.7,33.1,29.8,32.8,29.8z"/>
	<path class="st0" d="M40,22.6c-0.3,0-0.6-0.1-0.7-0.4l-2.8-4.8c-0.2-0.4-0.1-0.9,0.3-1.1c0.4-0.2,0.9-0.1,1.1,0.3l2.8,4.8
		c0.2,0.4,0.1,0.9-0.3,1.1C40.2,22.6,40.1,22.6,40,22.6z"/>
</g>
</svg>
