<?xml version="1.0" encoding="utf-8"?>
<!-- Generator: Adobe Illustrator 23.0.1, SVG Export Plug-In . SVG Version: 6.00 Build 0)  -->
<svg version="1.1" id="Layer_1" xmlns="http://www.w3.org/2000/svg" xmlns:xlink="http://www.w3.org/1999/xlink" x="0px" y="0px"
	 viewBox="0 0 100 100" style="enable-background:new 0 0 100 100;" xml:space="preserve">
<style type="text/css">
	.st0{fill:#9D9D9D;}
</style>
<g>
	<path class="st0" d="M51,35.1c-5,0-9.1-4.1-9.1-9.1c0-5,4.1-9.1,9.1-9.1c5,0,9.1,4.1,9.1,9.1C60.2,31,56.1,35.1,51,35.1z M51,18.8
		c-3.9,0-7.2,3.2-7.2,7.2c0,3.9,3.2,7.2,7.2,7.2c3.9,0,7.2-3.2,7.2-7.2C58.2,22,55,18.8,51,18.8z"/>
	<path class="st0" d="M50.1,83.6c-0.2,0-0.4-0.1-0.5-0.2l-1.6-1.1c-2.5-1.7-5.4-2.6-8.4-2.6H24.8c-0.5,0-1-0.4-1-1V53.2
		c0-0.5,0.4-1,1-1h14.7c3.4,0,6.7,1,9.5,2.9l1.6,1.1c0.3,0.2,0.4,0.5,0.4,0.8v25.7c0,0.4-0.2,0.7-0.5,0.9
		C50.4,83.6,50.3,83.6,50.1,83.6z M25.8,77.9h13.7c3.4,0,6.7,1,9.5,2.9l0.1,0.1V57.5l-1.2-0.8c-2.5-1.7-5.4-2.6-8.4-2.6H25.8V77.9z"
		/>
	<path class="st0" d="M50.1,83.6c-0.2,0-0.3,0-0.5-0.1c-0.3-0.2-0.5-0.5-0.5-0.9V57c0-0.3,0.2-0.6,0.4-0.8l1.6-1.1
		c2.8-1.9,6.1-2.9,9.5-2.9h15.6c0.5,0,1,0.4,1,1v25.7c0,0.5-0.4,1-1,1H60.7c-3,0-5.9,0.9-8.4,2.6l-1.6,1.1
		C50.5,83.6,50.3,83.6,50.1,83.6z M51.1,57.5v23.3l0.1-0.1c2.8-1.9,6.1-2.9,9.5-2.9h14.7V54.2H60.7c-3,0-5.9,0.9-8.4,2.6L51.1,57.5z
		"/>
	<path class="st0" d="M42,61.1H30.5c-0.5,0-1-0.4-1-1c0-0.5,0.4-1,1-1H42c0.5,0,1,0.4,1,1C42.9,60.6,42.5,61.1,42,61.1z"/>
	<path class="st0" d="M42,67.1H30.5c-0.5,0-1-0.4-1-1c0-0.5,0.4-1,1-1H42c0.5,0,1,0.4,1,1C42.9,66.7,42.5,67.1,42,67.1z"/>
	<path class="st0" d="M50.1,58c-0.2,0-0.4-0.1-0.5-0.2l-1.6-1.1c-2.5-1.7-5.4-2.6-8.4-2.6h-7c-0.5,0-1-0.4-1-1v-1.6
		c0-6.2,4.7-11.5,10.8-12.2c1-0.1,2.2-0.2,3.5-0.2c0.5,0,1,0.4,1,0.9c0,0.5-0.4,1-0.9,1c-1.3,0-2.5,0.1-3.4,0.2
		c-5.2,0.6-9.1,5-9.1,10.2v0.6h6.1c3.4,0,6.7,1,9.5,2.9l1.1,0.7l1.1-0.7c2.8-1.9,6.1-2.9,9.5-2.9h8v-0.6c0-5.2-3.9-9.6-9.1-10.2
		c-0.8-0.1-1.8-0.2-3-0.2c-0.5,0-1-0.5-0.9-1c0-0.5,0.5-1,1-0.9c1.2,0,2.2,0.1,3.1,0.2c6.2,0.7,10.8,5.9,10.8,12.2v1.6
		c0,0.5-0.4,1-1,1h-9c-3,0-5.9,0.9-8.4,2.6l-1.6,1.1C50.5,57.9,50.3,58,50.1,58z"/>
	<path class="st0" d="M24.8,72.5h-0.5c-2.5,0-4.5-2-4.5-4.5c0-2.5,2-4.5,4.5-4.5h0.5c0.5,0,1,0.4,1,1v7
		C25.8,72.1,25.3,72.5,24.8,72.5z M23.8,65.6c-1.2,0.2-2,1.2-2,2.5c0,1.2,0.9,2.2,2,2.5V65.6z"/>
	<path class="st0" d="M76.9,72.5h-0.5c-0.5,0-1-0.4-1-1v-7c0-0.5,0.4-1,1-1h0.5c2.5,0,4.5,2,4.5,4.5C81.3,70.5,79.3,72.5,76.9,72.5z
		 M77.3,65.6v4.9c1.2-0.2,2-1.2,2-2.5C79.4,66.8,78.5,65.8,77.3,65.6z"/>
</g>
</svg>
