<?xml version="1.0" encoding="utf-8"?>
<!-- Generator: Adobe Illustrator 23.0.1, SVG Export Plug-In . SVG Version: 6.00 Build 0)  -->
<svg version="1.1" id="Layer_1" xmlns="http://www.w3.org/2000/svg" xmlns:xlink="http://www.w3.org/1999/xlink" x="0px" y="0px"
	 viewBox="0 0 100 100" style="enable-background:new 0 0 100 100;" xml:space="preserve">
<style type="text/css">
	.st0{fill:#9D9D9D;}
</style>
<g>
	<path class="st0" d="M51.2,83c-18.5,0-33.5-15-33.5-33.5C17.7,31,32.7,16,51.2,16c18.5,0,33.5,15,33.5,33.5
		C84.7,68,69.6,83,51.2,83z M51.2,17.8c-17.5,0-31.7,14.2-31.7,31.7c0,17.5,14.2,31.7,31.7,31.7c17.5,0,31.7-14.2,31.7-31.7
		C82.9,32,68.6,17.8,51.2,17.8z"/>
	<path class="st0" d="M51.2,83C43.1,83,36.3,71.3,35,55.1c0-0.5,0.3-0.9,0.8-1c0.5-0.1,0.9,0.3,1,0.8c1.2,15,7.4,26.2,14.4,26.2
		c8,0,14.6-14.2,14.6-31.7c0-1.1,0-2.2-0.1-3.3c0-0.5,0.4-0.9,0.9-0.9c0.5,0,0.9,0.4,0.9,0.9c0.1,1.1,0.1,2.3,0.1,3.4
		C67.6,68.3,60.4,83,51.2,83z"/>
	<path class="st0" d="M65.4,37.6c-0.4,0-0.8-0.3-0.9-0.7c-2.3-11.4-7.7-19.1-13.4-19.1c-4.2,0-8.3,4.1-11.1,11.2
		c-0.2,0.5-0.7,0.7-1.2,0.5c-0.5-0.2-0.7-0.7-0.5-1.2C41.5,20.5,46.2,16,51.2,16c6.7,0,12.6,8.1,15.1,20.5c0.1,0.5-0.2,1-0.7,1.1
		C65.5,37.6,65.5,37.6,65.4,37.6z"/>
	<path class="st0" d="M35.8,45.5C35.8,45.5,35.8,45.5,35.8,45.5c-0.6,0-0.9-0.5-0.9-1c0.1-2.1,0.4-4.2,0.7-6.1
		c0.1-0.5,0.5-0.8,1-0.7c0.5,0.1,0.8,0.6,0.7,1c-0.3,1.9-0.6,3.9-0.7,6C36.7,45.1,36.3,45.5,35.8,45.5z"/>
	<path class="st0" d="M51.2,37.1c-3.1,0-6.2-0.4-9.2-1.3c-0.5-0.1-0.8-0.6-0.6-1.1c0.1-0.5,0.6-0.8,1.1-0.6c2.8,0.8,5.7,1.2,8.7,1.2
		c8.2,0,15.9-3.1,21.9-8.7c-5.9-5.6-13.6-8.7-21.9-8.7s-15.9,3.1-21.9,8.7c1.3,1.3,2.8,2.4,4.3,3.4c0.4,0.3,0.5,0.8,0.3,1.3
		c-0.3,0.4-0.8,0.5-1.3,0.3c-1.9-1.3-3.6-2.7-5.2-4.3c-0.3-0.4-0.3-0.9,0-1.3c6.3-6.4,14.8-9.9,23.8-9.9c9,0,17.5,3.5,23.8,9.9
		c0.3,0.4,0.3,0.9,0,1.3C68.6,33.6,60.2,37.1,51.2,37.1z"/>
	<path class="st0" d="M51.2,83c-9,0-17.5-3.5-23.8-9.9c-0.3-0.4-0.3-0.9,0-1.3c4.9-5,11.1-8.2,18-9.4c0.5-0.1,1,0.2,1,0.7
		c0.1,0.5-0.2,1-0.7,1c-6.2,1.1-11.8,3.9-16.4,8.3c5.9,5.6,13.6,8.7,21.9,8.7c8.2,0,15.9-3.1,21.9-8.7c-4.3-4.1-9.6-6.9-15.4-8.1
		c-0.5-0.1-0.8-0.6-0.7-1.1c0.1-0.5,0.6-0.8,1.1-0.7c6.4,1.3,12.3,4.5,16.9,9.2c0.3,0.4,0.3,0.9,0,1.3C68.6,79.5,60.2,83,51.2,83z"
		/>
	<path class="st0" d="M83.8,50.4h-42c-0.5,0-0.9-0.4-0.9-0.9s0.4-0.9,0.9-0.9h42c0.5,0,0.9,0.4,0.9,0.9S84.3,50.4,83.8,50.4z"/>
	<path class="st0" d="M29.8,50.4H18.6c-0.5,0-0.9-0.4-0.9-0.9s0.4-0.9,0.9-0.9h11.2c0.5,0,0.9,0.4,0.9,0.9S30.3,50.4,29.8,50.4z"/>
	<path class="st0" d="M37.6,36.5c-1.7,0-3.1-1.4-3.1-3.1c0-1.7,1.4-3.1,3.1-3.1c1.7,0,3.1,1.4,3.1,3.1
		C40.7,35.1,39.3,36.5,37.6,36.5z M37.6,32.1c-0.7,0-1.3,0.6-1.3,1.3c0,0.7,0.6,1.3,1.3,1.3c0.7,0,1.3-0.6,1.3-1.3
		C38.9,32.7,38.3,32.1,37.6,32.1z"/>
	<path class="st0" d="M66,44.6c-1.7,0-3.1-1.4-3.1-3.1s1.4-3.1,3.1-3.1c1.7,0,3.1,1.4,3.1,3.1S67.7,44.6,66,44.6z M66,40.2
		c-0.7,0-1.3,0.6-1.3,1.3c0,0.7,0.6,1.3,1.3,1.3c0.7,0,1.3-0.6,1.3-1.3C67.3,40.8,66.7,40.2,66,40.2z"/>
	<path class="st0" d="M51.4,65.9c-1.7,0-3.1-1.4-3.1-3.1c0-1.7,1.4-3.1,3.1-3.1c1.7,0,3.1,1.4,3.1,3.1
		C54.5,64.5,53.2,65.9,51.4,65.9z M51.4,61.5c-0.7,0-1.3,0.6-1.3,1.3c0,0.7,0.6,1.3,1.3,1.3c0.7,0,1.3-0.6,1.3-1.3
		C52.7,62.1,52.2,61.5,51.4,61.5z"/>
	<path class="st0" d="M74.3,63.7c-1.7,0-3.1-1.4-3.1-3.1s1.4-3.1,3.1-3.1c1.7,0,3.1,1.4,3.1,3.1S76,63.7,74.3,63.7z M74.3,59.3
		c-0.7,0-1.3,0.6-1.3,1.3c0,0.7,0.6,1.3,1.3,1.3c0.7,0,1.3-0.6,1.3-1.3C75.6,59.9,75,59.3,74.3,59.3z"/>
	<path class="st0" d="M35.7,52.6c-1.7,0-3.1-1.4-3.1-3.1c0-1.7,1.4-3.1,3.1-3.1c1.7,0,3.1,1.4,3.1,3.1
		C38.8,51.2,37.4,52.6,35.7,52.6z M35.7,48.2c-0.7,0-1.3,0.6-1.3,1.3c0,0.7,0.6,1.3,1.3,1.3c0.7,0,1.3-0.6,1.3-1.3
		C37,48.8,36.4,48.2,35.7,48.2z"/>
</g>
</svg>
