<?xml version="1.0" encoding="utf-8"?>
<!-- Generator: Adobe Illustrator 23.0.1, SVG Export Plug-In . SVG Version: 6.00 Build 0)  -->
<svg version="1.1" id="Layer_1" xmlns="http://www.w3.org/2000/svg" xmlns:xlink="http://www.w3.org/1999/xlink" x="0px" y="0px"
	 viewBox="0 0 100 100" style="enable-background:new 0 0 100 100;" xml:space="preserve">
<style type="text/css">
	.st0{fill:#9D9D9D;}
</style>
<g>
	<path class="st0" d="M78.9,68.6c-1,0-2.1-0.3-3-0.9L58.5,56.3c-0.6-0.4-0.8-1.2-0.4-1.8c0.4-0.6,1.2-0.8,1.8-0.4l17.4,11.4
		c0.7,0.4,1.5,0.6,2.3,0.4c0.8-0.2,1.4-0.7,1.8-1.4c0.7-1.3,0.3-3-1-3.9L56.2,45.5c-1.1-0.7-2.3-1-3.6-1H41.2v3
		c0,2.8-2.3,5.1-5.1,5.1c-2.8,0-5.1-2.3-5.1-5.1v-8.7c0-1.3,0.8-2.6,2-3.1l9.9-4.7c0.2-0.1,0.4-0.1,0.5-0.1h27.1
		c0.7,0,1.3,0.6,1.3,1.3c0,0.7-0.6,1.3-1.3,1.3H43.7L34,37.9c-0.3,0.1-0.5,0.5-0.5,0.8v8.7c0,1.4,1.2,2.6,2.6,2.6s2.6-1.2,2.6-2.6
		v-4.3c0-0.7,0.6-1.3,1.3-1.3h12.7c1.8,0,3.5,0.5,5,1.4l24.1,15.2c2.4,1.5,3.3,4.7,1.9,7.2c-0.7,1.3-2,2.3-3.4,2.6
		C79.7,68.5,79.3,68.6,78.9,68.6z"/>
	<path class="st0" d="M68.8,72.5c-1.1,0-2.2-0.3-3.2-1l-12.3-8.3c-0.6-0.4-0.7-1.2-0.3-1.8c0.4-0.6,1.2-0.7,1.8-0.3L67,69.4
		c0.7,0.5,1.6,0.6,2.4,0.5c0.8-0.2,1.6-0.7,2-1.4c0.9-1.5,0.5-3.4-0.9-4.3l-11.2-7.3c-0.6-0.4-0.8-1.2-0.4-1.8
		c0.4-0.6,1.2-0.8,1.8-0.4L71.9,62c2.6,1.7,3.4,5.2,1.7,7.8c-0.8,1.3-2.1,2.2-3.6,2.5C69.6,72.5,69.2,72.5,68.8,72.5z"/>
	<path class="st0" d="M60.3,77.4c-1,0-2.1-0.3-3-0.9L48.9,71c-0.6-0.4-0.8-1.2-0.4-1.8c0.4-0.6,1.2-0.8,1.8-0.4l8.4,5.4
		c1.4,0.9,3.2,0.5,4.2-0.7c0.5-0.7,0.7-1.5,0.6-2.4c-0.1-0.8-0.6-1.6-1.3-2.1l-5.5-3.7c-0.6-0.4-0.7-1.2-0.3-1.8
		c0.4-0.6,1.2-0.7,1.8-0.3l5.5,3.7c1.3,0.9,2.2,2.2,2.4,3.7c0.3,1.5-0.1,3.1-1.1,4.3C63.8,76.6,62.1,77.4,60.3,77.4z"/>
	<path class="st0" d="M50,80.8c-1,0-2-0.3-2.9-0.8l-0.9-0.6c-0.6-0.4-0.8-1.1-0.4-1.7c0.4-0.6,1.1-0.8,1.7-0.4l0.9,0.6
		c1.3,0.8,3,0.5,3.9-0.8c0.5-0.7,0.6-1.5,0.5-2.3c-0.2-0.8-0.6-1.5-1.3-1.9l-2.1-1.3c-0.6-0.4-0.8-1.2-0.4-1.8
		c0.4-0.6,1.2-0.8,1.8-0.4l2.1,1.3c1.3,0.8,2.1,2.1,2.4,3.6c0.3,1.5,0,3-0.9,4.2C53.4,80,51.7,80.8,50,80.8z"/>
	<path class="st0" d="M42.3,82c-1.1,0-2.2-0.4-3.2-1.1c-1.1-0.9-1.8-2.1-1.9-3.5c-0.1-1.4,0.3-2.8,1.3-3.8l0.4-0.5
		c1.8-2,4.8-2.3,6.9-0.6c1.1,0.9,1.8,2.2,1.9,3.6c0.1,1.4-0.4,2.8-1.3,3.8L46,80.4C45,81.4,43.6,82,42.3,82z M42.7,73.9
		c-0.7,0-1.4,0.3-1.9,0.8l-0.4,0.5c-0.5,0.5-0.7,1.2-0.6,1.9c0.1,0.7,0.4,1.3,0.9,1.8c1,0.8,2.6,0.7,3.5-0.3l0.4-0.5
		c0.5-0.5,0.7-1.2,0.7-1.9c-0.1-0.7-0.4-1.3-0.9-1.8C43.8,74.1,43.2,73.9,42.7,73.9z"/>
	<path class="st0" d="M35.1,78.5c-1.1,0-2.3-0.4-3.2-1.2c-1.1-0.9-1.7-2.1-1.8-3.5c-0.1-1.4,0.3-2.7,1.3-3.8l5.3-6
		c1.8-2.1,4.9-2.3,7.1-0.6l-0.7,1l0.8-1c1.1,0.9,1.7,2.2,1.8,3.6c0.1,1.4-0.4,2.8-1.3,3.8l-5.4,6C37.9,77.9,36.5,78.5,35.1,78.5z
		 M40.5,64.8c-0.7,0-1.4,0.3-1.9,0.9l-5.3,6c-0.5,0.5-0.7,1.2-0.6,1.9c0.1,0.7,0.4,1.3,0.9,1.8c1.1,0.9,2.6,0.8,3.5-0.3l5.4-6
		c0.5-0.5,0.7-1.2,0.7-1.9c-0.1-0.7-0.4-1.3-0.9-1.8C41.6,65,41,64.8,40.5,64.8z"/>
	<path class="st0" d="M29.9,72.8c-1.1,0-2.2-0.4-3.2-1.1c-1.1-0.9-1.8-2.1-2-3.5c-0.2-1.4,0.2-2.8,1.1-3.8l1.8-2.2
		c1.8-2.2,5-2.6,7.3-0.8c1.1,0.9,1.9,2.2,2,3.7c0.1,1.4-0.3,2.9-1.3,4l-1.9,2.2C32.7,72.2,31.3,72.8,29.9,72.8z M31.7,62.7
		c-0.8,0-1.6,0.3-2.1,1L27.8,66c-0.5,0.6-0.7,1.3-0.6,2c0.1,0.7,0.4,1.3,1,1.8c1.1,0.9,2.7,0.7,3.6-0.3l1.9-2.2
		c0.5-0.6,0.7-1.3,0.7-2c-0.1-0.8-0.4-1.4-1-1.9C32.9,62.9,32.3,62.7,31.7,62.7z"/>
	<path class="st0" d="M24.6,67.1c-1,0-2-0.3-2.9-1c-1.1-0.8-1.8-2-1.9-3.4s0.3-2.7,1.1-3.7l0.8-1c1.7-2,4.6-2.3,6.7-0.7
		c1,0.8,1.7,2,1.9,3.3c0.2,1.3-0.2,2.6-1,3.6l-0.8,1C27.4,66.5,26,67.1,24.6,67.1z M25.3,58.9c-0.7,0-1.3,0.3-1.8,0.8l-0.8,1
		c-0.4,0.5-0.6,1.1-0.5,1.8c0.1,0.6,0.4,1.2,0.9,1.6c1,0.8,2.4,0.6,3.2-0.4l0.8-1c0.4-0.5,0.6-1.1,0.5-1.7c-0.1-0.6-0.4-1.2-0.9-1.6
		C26.3,59.1,25.8,58.9,25.3,58.9z"/>
	<path class="st0" d="M22.6,60.2c-0.3,0-0.7-0.1-0.9-0.4l-7.2-7.4c-0.4-0.4-0.5-1.1-0.1-1.6l12.9-18.2c0.2-0.3,0.6-0.5,1-0.5h12.5
		c0.7,0,1.3,0.6,1.3,1.3c0,0.7-0.6,1.3-1.3,1.3H29L17.1,51.4l6.4,6.7c0.5,0.5,0.5,1.3,0,1.8C23.2,60.1,22.9,60.2,22.6,60.2z"/>
	<path class="st0" d="M87.6,56.3c-1.4,0-2.8-0.7-3.7-1.9C80.7,49.6,73.7,39,69.8,33.2c-1.3-1.9-0.8-4.6,1-6l11.5-8.7
		c0.6-0.4,1.4-0.3,1.8,0.2c0.4,0.6,0.3,1.4-0.2,1.8l-11.5,8.7c-0.8,0.6-1,1.7-0.4,2.5C75.8,37.6,82.8,48.2,86,53
		c0.6,0.8,1.7,1.1,2.6,0.5l9.3-5.9c0.6-0.4,1.4-0.2,1.7,0.4c0.4,0.6,0.2,1.4-0.4,1.7l-9.3,5.9C89.2,56.1,88.4,56.3,87.6,56.3z"/>
	<path class="st0" d="M12.9,54.1c-0.7,0-1.5-0.2-2.2-0.6L2,48.6c-0.6-0.3-0.8-1.1-0.5-1.7c0.3-0.6,1.1-0.8,1.7-0.5l8.7,4.9
		c0.8,0.5,1.9,0.2,2.5-0.6L27.5,32c0.6-0.8,0.4-1.9-0.3-2.5L14.6,19.2c-0.5-0.4-0.6-1.2-0.2-1.8c0.4-0.5,1.2-0.6,1.8-0.2l12.6,10.4
		c1.8,1.5,2.1,4,0.8,5.9L16.5,52.2C15.7,53.4,14.3,54.1,12.9,54.1z"/>
	<path class="st0" d="M78.1,59c-0.3,0-0.6-0.1-0.9-0.4c-0.5-0.5-0.5-1.3,0-1.8l5.7-5.8c0.5-0.5,1.3-0.5,1.8,0c0.5,0.5,0.5,1.3,0,1.8
		L79,58.6C78.7,58.9,78.4,59,78.1,59z"/>
	<path class="st0" d="M9.7,47.4c-0.2,0-0.5-0.1-0.7-0.2c-0.6-0.4-0.7-1.2-0.3-1.8l6.8-9.9c0.4-0.6,1.2-0.7,1.8-0.3
		c0.6,0.4,0.7,1.2,0.3,1.8l-6.8,9.9C10.5,47.2,10.1,47.4,9.7,47.4z"/>
	<path class="st0" d="M91.2,48.8c-0.4,0-0.8-0.2-1.1-0.6l-6.4-10.2c-0.4-0.6-0.2-1.4,0.4-1.7c0.6-0.4,1.4-0.2,1.7,0.4l6.4,10.2
		c0.4,0.6,0.2,1.4-0.4,1.7C91.6,48.7,91.4,48.8,91.2,48.8z"/>
</g>
</svg>
