<svg id="Layer_1" data-name="Layer 1" xmlns="http://www.w3.org/2000/svg" viewBox="0 0 460.49 460.48"><defs><style>.cls-1{fill:#fff;}</style></defs><title>Globe-icon</title><path id="icon" class="cls-1" d="M644.65,159.62c37.06,59.5,43.92,146,13.67,210.25-34.44,79.79-118.52,138.87-207.38,139-87.5,3.57-174.53-50.33-211.62-129.61C210.12,322,209,240.14,237.89,182.07,278,95.64,369.24,42,464.17,49.21,535.77,53.06,606.77,95.86,644.65,159.62Zm-349-36.19c14.25,14.94,32.89,27.72,51.37,36.84,17.73-36.14,49-72.42,83.73-97.8C379.22,66.31,333.08,87.66,295.68,123.43ZM468.41,62.66C502.18,86.31,534.29,122,552,157.74A196.62,196.62,0,0,0,598.87,123C561.9,87.32,517,67.76,468.41,62.66ZM444.1,69.52c-35.55,24.52-66.52,59.35-85,96.86,27,11.26,52.4,17.92,84.47,18.6Zm13.35,2.34-0.21,112.62c30.4-.89,57.36-8.47,82.86-20.84C522.37,129.09,491.09,93.87,457.44,71.86ZM608.17,133a221,221,0,0,1-49.9,36.52c14,32.65,22.51,66.62,23.71,104.52l82.34-.17C662.68,220,644,172,608.17,133Zm-322.09,0c-31.92,34.43-49.14,76.09-55,121.45-0.72.95,0.43,2.28-.52,3L229.91,274l0.32,0.3,88.76-.11c0.56-32.68,8.41-70.43,22.21-101.59C321.28,162.67,302.82,148.94,286.07,133Zm259.76,42.9A225.31,225.31,0,0,1,457.19,198v1.06L457.37,274l0.21,0.21L568.42,274A244.86,244.86,0,0,0,545.83,175.95Zm-192.56,2.69c-13,29.61-19.95,61.23-20.85,95.57l111.06,0,0.35-75.67C412.38,198.26,381.2,190.41,353.28,178.63ZM660.9,287.13l-79,.17c-0.47,33.1-9.36,69.6-23.17,100.55,17,10,33.66,21.49,48.84,35.94,35-39.09,54.66-85.44,56.67-136.33C663.11,287.34,661.84,287.64,660.9,287.13Zm-95.6.08-108,.24L457,359.19a242.44,242.44,0,0,1,89.9,22.16c12.44-29.09,21.1-60.4,21.46-93.91Zm-121.67.19-24-.1-86.87.14-0.22,5.19c1.22,28.74,8.47,59.38,19.59,86.29a243.92,243.92,0,0,1,87.37-19.8,22.18,22.18,0,0,0,4-.51Zm-132-.06-81.82.17c2.19,52.15,21,98.22,55.65,136.61,16.79-15,34.41-29,54.76-39.21-12.69-30.14-20.42-62.54-21-97.32Zm131.59,85c-31,.79-59.24,6.92-85.37,19.07,18.65,38.4,48.78,73.72,85,98.14Zm13.66,0.06L456.4,489.11c34.81-23.7,66-58,84.45-95.08l-1.58-.94C514.08,380.89,485.3,374.11,456.91,372.42Zm-111.46,24.8c-17.4,9.7-35.64,21.19-50.33,36.95,36,34.52,81.34,56.58,132.21,60.87C392.54,469.57,363.46,433.33,345.45,397.22Zm207.25,3.12c-3.5,6.53-6.79,12.46-10.7,18.68a279.93,279.93,0,0,1-69.23,75.16c47.35-5.82,90.67-26.86,125.42-60.42C584.06,420.24,569.05,408.73,552.7,400.34Z" transform="translate(-216.82 -48.57)"/></svg>