<svg id="Layer_1" data-name="Layer 1" xmlns="http://www.w3.org/2000/svg" viewBox="0 0 356.3 356.3"><defs><style>.cls-1{fill:#131313;}.cls-2{fill:#fff;}</style></defs><title>instagram-icon</title><circle class="cls-1" cx="178.15" cy="178.15" r="178.15"/><path class="cls-2" d="M457.82,206.13c27.5,0,30.76.1,41.62,0.6,10,0.46,15.49,2.14,19.12,3.55a34.13,34.13,0,0,1,19.55,19.55c1.41,3.63,3.09,9.09,3.55,19.13,0.5,10.86.6,14.12,0.6,41.62s-0.1,30.76-.6,41.62c-0.46,10-2.14,15.49-3.55,19.13a34.14,34.14,0,0,1-19.55,19.55c-3.63,1.41-9.08,3.09-19.12,3.55-10.86.49-14.12,0.6-41.62,0.6s-30.76-.11-41.62-0.6c-10-.46-15.5-2.14-19.12-3.55a34.16,34.16,0,0,1-19.54-19.55c-1.41-3.63-3.09-9.09-3.55-19.12-0.5-10.86-.6-14.12-0.6-41.62s0.1-30.76.6-41.62c0.46-10,2.14-15.49,3.55-19.13a34.16,34.16,0,0,1,19.54-19.55c3.63-1.41,9.08-3.09,19.12-3.55,10.86-.5,14.12-0.6,41.62-0.6m0-18.56c-28,0-31.48.12-42.46,0.62s-18.46,2.24-25,4.79a52.69,52.69,0,0,0-30.12,30.12c-2.55,6.55-4.29,14-4.78,25s-0.63,14.5-.63,42.47,0.12,31.48.63,42.46,2.24,18.45,4.78,25a52.68,52.68,0,0,0,30.12,30.12c6.55,2.55,14,4.29,25,4.79s14.49,0.62,42.46.62,31.48-.12,42.46-0.62,18.45-2.24,25-4.79A52.65,52.65,0,0,0,555.4,358c2.55-6.55,4.29-14,4.79-25s0.62-14.49.62-42.46-0.12-31.48-.62-42.47-2.24-18.45-4.79-25A52.65,52.65,0,0,0,525.28,193c-6.55-2.55-14-4.29-25-4.79s-14.49-.62-42.46-0.62" transform="translate(-279.48 -108.69)"/><path class="cls-2" d="M457.82,237.68a52.89,52.89,0,1,0,52.89,52.89,52.88,52.88,0,0,0-52.89-52.89m0,87.22a34.33,34.33,0,1,1,34.33-34.33,34.34,34.34,0,0,1-34.33,34.33" transform="translate(-279.48 -108.69)"/><path class="cls-2" d="M525.16,235.59a12.36,12.36,0,1,1-12.36-12.36,12.36,12.36,0,0,1,12.36,12.36" transform="translate(-279.48 -108.69)"/></svg>