<svg id="Layer_1" data-name="Layer 1" xmlns="http://www.w3.org/2000/svg" viewBox="0 0 363.72 227.48"><defs><style>.cls-1{fill:#fff;}</style></defs><title>mail-icon</title><path class="cls-1" d="M677.82,388.21H334.09a10,10,0,0,1-10-10V170.73a10,10,0,0,1,10-10H677.82a10,10,0,0,1,10,10V378.21A10,10,0,0,1,677.82,388.21Zm-333.72-20H667.82V180.73H344.09V368.21Z" transform="translate(-324.09 -160.73)"/><path class="cls-1" d="M506,318.75a10,10,0,0,1-6.26-2.2l-171.86-138a10,10,0,0,1,12.52-15.59l165.6,133,165.6-133a10,10,0,1,1,12.52,15.59l-171.86,138A10,10,0,0,1,506,318.75Z" transform="translate(-324.09 -160.73)"/><path class="cls-1" d="M334.1,388.21a10,10,0,0,1-6.46-17.63L453.45,264.13a10,10,0,0,1,12.92,15.27L340.55,385.84A10,10,0,0,1,334.1,388.21Z" transform="translate(-324.09 -160.73)"/><path class="cls-1" d="M677.81,388.21a10,10,0,0,1-6.45-2.37L545.54,279.4a10,10,0,1,1,12.92-15.27L684.27,370.57A10,10,0,0,1,677.81,388.21Z" transform="translate(-324.09 -160.73)"/></svg>