<svg id="Layer_1" data-name="Layer 1" xmlns="http://www.w3.org/2000/svg" viewBox="0 0 356.29 356.3"><defs><style>.cls-1{fill:#131313;}.cls-2{fill:#fff;}</style></defs><title>youtube-icon</title><path class="cls-1" d="M652,280.77A178.15,178.15,0,1,1,473.85,102.62,178.15,178.15,0,0,1,652,280.77Z" transform="translate(-295.7 -102.62)"/><path class="cls-2" d="M508.43,255.26c3.59,0,8.58-1.86,13.73-8v7H534V190.49H522.16v48.45c-1.45,1.82-4.67,4.79-7,4.79-2.55,0-3.17-1.73-3.17-4.29v-49H500.15v53.37C500.15,250.16,502.08,255.26,508.43,255.26Z" transform="translate(-295.7 -102.62)"/><path class="cls-2" d="M455.61,238.4c0,11.25,5.88,17.11,17.4,17.11,9.54,0,17.06-6.37,17.06-17.11V207.12A16.66,16.66,0,0,0,473,190c-10.46,0-17.4,6.91-17.4,17.16V238.4Zm12.22-30.24c0-3.5,1.61-6.09,4.95-6.09,3.64,0,5.2,2.51,5.2,6.09v29.7c0,3.48-1.77,6-5,6s-5.18-2.68-5.18-6v-29.7Z" transform="translate(-295.7 -102.62)"/><polygon class="cls-2" points="131.59 151.71 144.96 151.71 144.96 116.6 160.51 65.16 146.94 65.16 138.37 99.75 129.15 65.16 115.69 65.16 131.59 116.6 131.59 151.71"/><path class="cls-2" d="M550,268.86H410.09a27.22,27.22,0,0,0-27.22,27.23v68.76a27.22,27.22,0,0,0,27.22,27.22H550a27.21,27.21,0,0,0,27.22-27.22V296.09A27.22,27.22,0,0,0,550,268.86ZM428.74,371.69H416V301.22H402.83v-12h39.08v12H428.74v70.47Zm45.29,0H462.72V365a25,25,0,0,1-6.5,5.65c-6.09,3.49-14.46,3.42-14.46-8.93V310.89h11.31v46.6c0,2.45.6,4.1,3,4.1,2.2,0,5.27-2.82,6.64-4.55V310.89H474v60.8Zm43.52-12.6c0,7.52-2.81,13.36-10.34,13.36-4.14,0-7.59-1.51-10.74-5.44v4.67H485.05V289.25h11.42V315.8c2.54-3.11,6-5.68,10-5.68,8.29,0,11,7,11,15.24v33.74Zm41.79-16.38H537.71v11.47c0,4.56.38,8.5,4.94,8.5,4.77,0,5.05-3.21,5.05-8.5V350h11.63v4.57c0,11.71-5,18.81-16.95,18.81-10.8,0-16.32-7.87-16.32-18.81V327.23c0-10.57,7-17.88,17.17-17.88,10.85,0,16.1,6.88,16.1,17.88v15.48Z" transform="translate(-295.7 -102.62)"/><path class="cls-2" d="M542.76,320c-4.19,0-5.05,2.95-5.05,7.13v6.15h10v-6.15C547.7,323,546.81,320,542.76,320Z" transform="translate(-295.7 -102.62)"/><path class="cls-2" d="M498.8,320.37a8.33,8.33,0,0,0-2.33,1.86v37.89a9.73,9.73,0,0,0,2.67,2.14c1.84,0.93,4.54,1,5.77-.62a6.88,6.88,0,0,0,1-4.19V326a7.67,7.67,0,0,0-1.21-4.67A4.7,4.7,0,0,0,498.8,320.37Z" transform="translate(-295.7 -102.62)"/></svg>